<?xml version="1.0" encoding="utf-8"?>
<!-- Generator: Adobe Illustrator 25.1.0, SVG Export Plug-In . SVG Version: 6.00 Build 0)  -->
<svg version="1.1" xmlns="http://www.w3.org/2000/svg" xmlns:xlink="http://www.w3.org/1999/xlink" x="0px" y="0px"
	 viewBox="0 0 890.1 692.7" style="enable-background:new 0 0 890.1 692.7;" xml:space="preserve">
<style type="text/css">
	.st0{fill:#FFFFFF;}
	.st1{opacity:0.1;fill:#219CB3;enable-background:new    ;}
	.st2{fill:url(#SVGID_1_);}
	.st3{fill:#4C495A;}
	.st4{opacity:0.1;enable-background:new    ;}
	.st5{fill:#5F5D7E;}
	.st6{fill:#FDC2CC;}
	.st7{fill:#219CB3;}
	.st8{fill:#DFE6F5;}
	.st9{fill:#53526B;}
	.st10{fill:#865A61;}
	.st11{opacity:0.1;}
	.st12{fill:#535461;}
	.st13{fill:#65617D;}
	.st14{fill:#9D9CB5;}
	.st15{fill:none;stroke:#535461;stroke-width:2;stroke-miterlimit:10;}
	.st16{fill:none;}
</style>
<g id="Layer_2">
	<rect x="-181" class="st0" width="181" height="692.7"/>
</g>
<g id="e76419e8-217f-4623-abeb-e9c3d79c6db7">
	<ellipse class="st1" cx="159.2" cy="685.3" rx="324" ry="11.5"/>
	<path class="st1" d="M74,29.9c20.6-18.4,53-22.1,82.5-20.7c92.6,4.6,176.3,49.3,248.6,99.9c26.2,18.3,52,38,69,63.3
		c34.6,51.3,24.3,122.5-23.8,164.7c-16.4,14.4-36.2,25.4-56.6,35.2c-36.2,17.4-75.3,31.3-116.4,35.3c-29.3,2.8-59,0.5-88.1-3.4
		c-81.4-11-161.4-35.5-228.4-77.2c-29.4-18.3-57.1-41.1-69.2-70.8s-4.4-67.2,25.6-84.8c12.4-7.3,27.2-10.5,41.8-13.6
		c21.4-4.5,43.1-9,62.4-18.2c19.9-9.5,43.5-27.9,39.6-49C56.8,68.1,53.4,48.3,74,29.9z"/>
	<ellipse class="st1" cx="803.4" cy="685.1" rx="86.7" ry="7.7"/>
	
		<linearGradient id="SVGID_1_" gradientUnits="userSpaceOnUse" x1="343.1542" y1="-105.428" x2="343.1542" y2="530.1324" gradientTransform="matrix(1 0 0 -1 -154.9654 590.3641)">
		<stop  offset="0" style="stop-color:#808080;stop-opacity:0.25"/>
		<stop  offset="0.5351" style="stop-color:#808080;stop-opacity:0.12"/>
		<stop  offset="1" style="stop-color:#808080;stop-opacity:0.1"/>
	</linearGradient>
	<path class="st2" d="M287.1,269.8c-1.4-2.7-8.9-19.7-8.9-19.7l-12.5-32.4c0,0-8.9-13.7-8.9-16.2s-16.1-12.7-16.1-12.7
		s-13.1-3.9-14.1-4.3s-16.5-5.5-16.5-5.5s-6.1-8-7-5.9l0,0c0-0.1-0.1-0.1-0.1-0.2c-1.2-2.3-2-4.9-2.3-7.5c0-0.2-0.1-0.5-0.1-0.7
		c8.2-5.5,13.1-14.8,13.1-24.6c0-1.3-0.1-2.6-0.3-3.8c0.1-0.1,0.2-0.1,0.3-0.2c0.3-0.1,0.2-0.2,0-0.3c0.1,0,0.1-0.1,0.2-0.1
		c0.3-0.1,0.1-0.3-0.2-0.4l0,0c0.5-0.2-0.1-0.3-0.6-0.5c0-0.1,0-0.3-0.1-0.4c0.1-0.3,0.2-0.5,0.2-0.8c0,0,0.1,0,0.1,0.1
		c0.1-0.5,0.1-1,0-1.5c0,0.1-0.1,0.2-0.1,0.3c0.1-0.9-0.4-1.8-1.2-2.3c0,0,0,0-0.1-0.1l0.9-8.8c12.6-0.6,14.8-22,11.9-23.2
		s0-3.8,0-8.9s-9.5-10.9-9.5-10.9s-4,2-10.2-7.9s-29-11.5-30.5-8.9s-11.7,6-25,9.7s-10.8,19.5-8.6,22.8c1.8,2.8,2.9,6,3.1,9.3
		c0,2,4.2,10.3,4.2,10.3c-1.3,2.9,2,18.7,3,23.2c0,0.1,0,0.3,0,0.4c0,0,0,0,0,0c0,0.1-0.1,0.1-0.1,0.2c-0.2,0.5-0.3,1-0.2,1.5
		c-0.1,0.6,0,1.1,0.2,1.6c0.2,8.6,4,16.7,10.6,22.2c0,0.3,0,0.5,0,0.8c0.2,3.7,0.3,8,0.1,12.2c0,0.2,0,0.4,0,0.6
		c-1.5,0.3-2.7,1.3-3.4,2.7c-1.2,2.4-8.5,6.1-8.5,6.1s-12.7,0.6-13.9,2.9s-19.6,10.1-19.6,10.1s-9.7,5.7-8.3,12.1
		c0.7,3.4-1.3,8.6-3.5,12.8c-4.5-1.7-9.2-2.9-13.9-3.5l10.3,9.8c-0.2,0.3-0.3,0.5-0.3,0.5l-5.8,20.7c0,0-2,7.2-4,9
		s1.8,17.8,1.8,17.8s-2.2,11.3-4,14.2s2.8,10.1,2.8,10.1l9.3,21.1l24.6,6.2c0,0,1.6,0.3,4.3,0.9c-0.1,0.5-0.2,1-0.3,1.5
		c-1.2,6.7-2.7,12.9-4.6,14.6c-4.6,4.1-4.4,22.4-4.4,22.4l0.2,25.9c0,0,1.6,32,0.8,33.2c-0.5,0.7,0.5,1.9,3.2,3
		c-0.1,0.5-0.2,1-0.2,1.5c-0.8,5.3-1.1,11.4,0.6,14c0.8,1.4,1.2,3,1.2,4.7c0,2.5,3.8,7.8,3.8,7.8s-3,21.7,2,29.1s9.3,20.9,6.9,24
		c0,0-4.2,9.2-2.2,13.3s0,6.4-2.6,7.4s-2.4,9-2.4,9l4.8,38c0,0,2.6,7.8,0.4,10.5s-2.2,16.4,1.2,21.1s-4.8,13.3-4.8,13.3
		s-5,7.2,3,9.6c0,0,1.6,0.4-1.4,3.5s-3.6,7-1.6,8.4c0.4,0.3,0.9,0.5,1.3,0.6c-0.1,0.5-0.2,0.9-0.3,1.4c-0.8,4.1-2.2,9.4-4.9,11.9
		c-5.1,5.3-9.6,11.2-13.2,17.6c-2.8,5.2-4,10.2-0.9,12.5c7.3,5.5,16.5,7.2,22,5.1s13.1-8.8,13.1-8.8l1.8-7.6c0,0-1.2-4.7,4.8-6.4
		s11.7-8,11.7-8V654c1.5-0.8,2.9-1.8,4.2-2.8c0,0,2.8-9.9,0-13.3s-3.8-4.5-0.2-6.6s4.1-6.8,1.5-10.9c-2.7-4.1-6.9-10.1-3.3-18.7
		s5-34.9,5-34.9s-1.7-17.9,0-22s-1.9-12.3-1.9-12.3s1.2-10.1,3.4-14.8s4-29.5,4-29.5s4-10.5,4-17.4s-6.2-23.2,3-27.5
		c0,0,4,3.5,2.4,17.6c0,0,4.6,16.4,4.6,21.5s3.4,23.4,3.4,23.4s0.4,5.9,1.8,8s0,8,0,8s5.2,4.9,3.8,8s0.2,10.2,0.2,10.2l-1.2,43.7
		c0,0-3.6,18.7,4.8,30c0,0-3,16.6-4.8,17.8s6.7,11.3,6.7,11.3s-2.3,6.6,2.4,6.9v10.9c1.7,2.9,3.9,5.5,6.7,7.4
		c4.4,3.1,2.6,13.9,2.6,13.9s5.6,13.7,20.6,10.7c14.9-2.9,16.9-4.3,16.1-9.2c-0.3-1.8-0.9-5-1.9-8.6c-1.6-6.3-4.1-13.8-7-17.6
		c-4.6-5.9-8.5-18.2-8.5-18.2s-1.8-4.1,0-5.5s1-3.9,1-3.9s1.8-5.1,0.2-8.2s3-9.6,3-9.6l-1.4-30l1.4-43.7c0,0-6.2-7.2-3.6-11.5
		s-3-10.3-3-10.3s-0.6-0.2,1-5.1c1-2.9,0.8-6-0.4-8.8c0,0-3.4-12.1,2.6-21.3c0,0,2.6-12.1,3.4-18.3c0.6-4.3,4-20.5,6.1-30
		c0.1-0.5,0.2-1,0.3-1.5c3,0.2,5.2,0.4,5.2,0.4s-4.6-32.2,0-38.8c4.6-6.6-3.6-57.4-3.6-57.4s-2-8.9-3.2-17.9c-0.1-0.5-0.1-1-0.2-1.5
		c3.7-0.3,7.5-0.4,11.3-0.2c9.7,0.6,19.1-3.1,19.4-6.8s5.4-18.3,6.2-21.7S288.6,272.6,287.1,269.8z"/>
	<path class="st3" d="M169.5,646.2v18.1c0,0-5.4,6.2-11.3,8s-4.7,6.4-4.7,6.4l-1.7,7.6c0,0-7.4,6.6-12.6,8.7s-14.2,0.4-21.2-5
		c-3-2.3-1.8-7.2,0.9-12.4c3.5-6.4,7.7-12.2,12.7-17.5c2.6-2.6,4-7.8,4.7-11.9c0.6-3,0.7-5.4,0.7-5.4L169.5,646.2z"/>
	<path class="st4" d="M169.5,659.6v4.6c0,0-5.4,6.2-11.3,8s-4.7,6.4-4.7,6.4l-1.7,7.6c0,0-7.4,6.6-12.6,8.7s-14.2,0.4-21.2-5
		c-3-2.3-1.8-7.2,0.9-12.4c-0.1,5.5,1.5,11.6,9.4,11.4c8.5-0.3,16.8-3.3,23.5-8.5c0,0-0.2-12.8,8.7-15.7
		C163.9,663.5,166.9,661.8,169.5,659.6z"/>
	<path class="st3" d="M240.6,692.4c-14.4,2.9-19.8-10.7-19.8-10.7s1.7-10.7-2.5-13.8c-2.6-2-4.8-4.5-6.4-7.4v-17.9l17.5-12.4
		l9.5,8.4l0.6,0.6c0,0,3.7,12.2,8.2,18.1c2.8,3.7,5.2,11.2,6.8,17.5c0.9,3.6,1.5,6.8,1.8,8.5C256.9,688.1,255,689.5,240.6,692.4z"/>
	<path class="st4" d="M240.6,692.4c-14.4,2.9-19.8-10.7-19.8-10.7s1.7-10.7-2.5-13.8c-2.6-2-4.8-4.5-6.4-7.4v-6.9
		c2.8,2.9,8,8.6,9.1,11c1.6,3.3,1.7,15.3,8.9,17.5s21.2,4.1,22.3-1.4c0.5-2.1,1.2-4.1,2.1-6c0.9,3.6,1.5,6.8,1.8,8.5
		C256.9,688.1,255,689.5,240.6,692.4z"/>
	<path class="st4" d="M137.1,642.7l32.4,3.5v9.5c-3.7,2.2-8.9,4.5-11.8,2.1c-4.4-3.5-17.3-7.9-21.3-9.8
		C136.9,645,137.1,642.7,137.1,642.7z"/>
	<path class="st4" d="M239.5,640.7c-4.5-1.6-12.4,5.2-22.9,9.5c-1.5,0.7-3,1-4.7,1v-8.6l17.5-12.4l9.5,8.4
		C239,639.3,239.2,640,239.5,640.7z"/>
	<path class="st5" d="M250.9,426.9c0,0-0.6,2.9-1.5,7c-2,9.4-5.4,25.6-5.9,29.9c-0.8,6.2-3.3,18.3-3.3,18.3
		c-5.8,9.1-2.5,21.2-2.5,21.2c1.2,2.8,1.3,5.9,0.4,8.7c-1.6,4.9-1,5-1,5s5.4,6,2.9,10.3s3.5,11.5,3.5,11.5l-1.4,43.5l1.4,29.9
		c0,0-4.5,6.4-2.9,9.5s-0.2,8.2-0.2,8.2s0.8,2.5-1,3.9s0,5.4,0,5.4c-4.5-1.6-12.4,5.2-22.9,9.5s-7-5.8-7-5.8s-8.2-10.1-6.4-11.3
		s4.7-17.7,4.7-17.7c-8.2-11.3-4.7-29.9-4.7-29.9l1.2-43.5c0,0-1.6-7-0.2-10.1s-3.7-8-3.7-8s1.4-5.8,0-8s-1.7-8-1.7-8
		s-3.3-18.3-3.3-23.3s-4.5-21.4-4.5-21.4c1.6-14-2.3-17.5-2.3-17.5c-8.9,4.3-2.9,20.6-2.9,27.4s-3.9,17.3-3.9,17.3
		s-1.7,24.7-3.9,29.3s-3.3,14.8-3.3,14.8s3.5,8.2,1.9,12.2s0,21.9,0,21.9s-1.3,26.2-4.8,34.8s0.6,14.6,3.2,18.6
		c2.6,4.1,2.1,8.7-1.4,10.9s-2.5,3.3,0.2,6.6s0,13.2,0,13.2s-11.1,8.7-15.9,4.9s-20.4-8.9-22.3-10.3s-1.4-5.2,1.6-8.4
		s1.4-3.5,1.4-3.5c-7.8-2.3-2.9-9.5-2.9-9.5s8-8.5,4.7-13.2s-3.3-18.3-1.2-21s-0.4-10.5-0.4-10.5l-4.6-37.9c0,0-0.2-8,2.3-8.9
		s4.5-3.3,2.5-7.4s2.1-13.2,2.1-13.2c2.3-3.1-1.7-16.5-6.6-23.9s-1.9-28.9-1.9-28.9s-3.7-5.2-3.7-7.8c0-1.6-0.4-3.2-1.2-4.7
		c-1.7-2.7-1.4-8.7-0.6-14c0.7-5.1,1.8-9.5,1.8-9.5L250.9,426.9z"/>
	<path class="st6" d="M212.8,206.8l-38.3,8.9c0,0-18.8-15.9-14.2-24.5c1.6-2.9,2.3-7.9,2.5-13.2c0.2-4.1,0.1-8.5-0.1-12.1
		c-0.3-5.3-0.7-9.2-0.7-9.2s39.2-22.1,37.9,0c-0.3,3.7-0.2,7.4,0.3,11.1c0.3,2.6,1,5.1,2.2,7.5c2.1,3.7,4.7,3.8,4.7,3.8L212.8,206.8
		z"/>
	<path class="st4" d="M200.3,167.8c-11.4,8.2-26.9,7.4-37.4-1.9c-0.3-5.3-0.7-9.2-0.7-9.2s39.2-22.1,37.9,0
		C199.7,160.4,199.8,164.1,200.3,167.8z"/>
	<circle class="st6" cx="182.7" cy="142.5" r="30.1"/>
	<path class="st4" d="M212.8,206.8l-38.3,8.9c0,0-18.8-15.9-14.2-24.5c1.6-2.9,2.3-7.9,2.5-13.2c0.8,4.6,3.3,8.8,7,11.7
		c8.7,5.8,7.4,13,7.4,13l15.7-0.6c-1-6.4,4.9-9.9,6.8-10.7s1-4.3,1-4.3l1.7-11.9c2.1,3.7,4.7,3.8,4.7,3.8L212.8,206.8z"/>
	<path class="st4" d="M250.9,426.9c0,0-0.6,2.9-1.5,7c-4.2-0.2-9.8-0.4-12.3,0.2c-4.3,1-21.4,1.4-21.4,1.4l-42.3,1.5v-1.3
		c-4.9,0-9.7,0.4-14.6,1c-7.2,1-18.5-0.4-25.6-1.6c-2.2-0.3-4.4-0.9-6.4-1.7c0.7-5.1,1.8-9.5,1.8-9.5L250.9,426.9z"/>
	<path class="st7" d="M247.6,303.6c-0.6,3.6-0.2,9.6,0.6,15.6c1.2,9,3.1,17.8,3.1,17.8s8,50.5,3.5,57.1c-4.5,6.6,0,38.7,0,38.7
		s-13.4-1.2-17.7-0.2s-21.4,1.4-21.4,1.4l-42.3,1.5v-1.3c-4.9,0-9.7,0.4-14.6,1c-7.2,1-18.5-0.4-25.6-1.6s-10.1-3.5-9.3-4.7
		s-0.8-33-0.8-33l-0.2-25.8c0,0-0.2-18.3,4.3-22.3c1.8-1.7,3.3-7.8,4.5-14.5c1.6-9.7,2.5-20.5,2.5-20.5l-29.5-79l-0.6-1.6
		c0,0,8.5-13.2,7.2-19.6s8-12,8-12s17.7-7.8,18.8-10.1s13.4-2.9,13.4-2.9s7-3.7,8.2-6.1c0.6-1.4,1.8-2.3,3.3-2.6
		c0.8,4.7,3.3,8.9,7,11.8c8.7,5.8,7.4,13,7.4,13l15.7-0.6c-1-6.4,4.9-9.9,6.8-10.7s1-4.3,1-4.3l1.8-12.6c0.8-2.1,6.7,5.9,6.7,5.9
		s15,5.1,15.9,5.5s13.6,4.3,13.6,4.3s15.5,10.1,15.5,12.6s8.5,16.1,8.5,16.1s-0.1,0.5-0.3,1.5C260.7,232.1,249,295.2,247.6,303.6z"
		/>
	<path class="st6" d="M185.5,272.1c0,0-33.6-8.9-36.9-11.1s-22.7,10.3,1,27.2c0,0,29,6,36.7,0C194,282.2,185.5,272.1,185.5,272.1z"
		/>
	<path class="st4" d="M258.1,218.9l4.1,0.2l12,32.2c0,0,7.2,16.9,8.5,19.6s0.8,14,0,17.3s-5.8,17.9-6,21.6s-9.3,7.4-18.6,6.8
		c-9.3-0.6-31.1,2.3-31.1,2.3s-23.2-2.4-37.5,4.9c0,0-9.1-18.8-8.2-54c0,0,16.1-1,20.2,0.6s23.9,6,26.4,3.7s14,4.3,14,4.3
		c1.2-2.6,1.2-5.6,0-8.2c-1.9-4.7-5.2-19.2-1-23.9S258.1,218.9,258.1,218.9z"/>
	<path class="st4" d="M248.2,319.1c-9.6,0.7-20.4,2.1-20.4,2.1s-23.2-2.4-37.5,4.9c0,0-9.1-18.8-8.2-54c0,0,16.1-1,20.2,0.6
		s23.9,6,26.4,3.7s14,4.3,14,4.3c1.2-2.6,1.2-5.6,0-8.2c-1.9-4.7-5.2-19.2-1-23.9s17.1-27.4,17.1-27.4l3.8,0.2
		c-2,10.7-13.6,73.8-15.1,82.2C247,307.2,247.4,313.2,248.2,319.1z"/>
	<path class="st7" d="M258.9,219.6l4.1,0.2l12,32.2c0,0,7.2,16.9,8.5,19.6s0.8,14,0,17.3s-5.8,17.9-6,21.6s-9.3,7.4-18.6,6.8
		c-9.3-0.6-31.1,2.3-31.1,2.3s-23.2-2.4-37.5,4.9c0,0-9.1-18.8-8.2-54c0,0,16.1-1,20.2,0.6s23.9,6,26.4,3.7s14,4.3,14,4.3
		c1.2-2.6,1.2-5.6,0-8.2c-1.9-4.7-5.2-19.2-1-23.9S258.9,219.6,258.9,219.6z"/>
	
		<rect x="208.1" y="267.8" transform="matrix(0.5264 -0.8502 0.8502 0.5264 -119.4319 326.9354)" class="st8" width="51.3" height="5.7"/>
	
		<ellipse transform="matrix(0.5264 -0.8502 0.8502 0.5264 -82.5264 328.642)" class="st8" cx="253.8" cy="238.4" rx="16.4" ry="11.5"/>
	
		<ellipse transform="matrix(0.5264 -0.8502 0.8502 0.5264 -82.5264 328.642)" class="st4" cx="253.8" cy="238.4" rx="11.8" ry="8.3"/>
	
		<rect x="198.9" y="298.4" transform="matrix(0.5264 -0.8502 0.8502 0.5264 -154.3424 325.3209)" class="st9" width="31.9" height="5.7"/>
	<path class="st6" d="M175.6,315.2l11.8-3.3c0,0,58.5,1.6,38.8-22.5c0,0-10.3-9.9-31.9-1.9s-27.6,8.9-27.6,8.9L175.6,315.2z"/>
	<circle class="st4" cx="166.8" cy="211.3" r="2.3"/>
	<circle class="st4" cx="206.8" cy="209.9" r="2.3"/>
	<circle class="st0" cx="166.8" cy="210.5" r="2.3"/>
	<circle class="st4" cx="170.1" cy="243.5" r="2.3"/>
	<circle class="st4" cx="208" cy="241.2" r="2.3"/>
	<circle class="st0" cx="170.1" cy="242.8" r="2.3"/>
	<circle class="st4" cx="207" cy="353.7" r="2.3"/>
	<circle class="st4" cx="176.3" cy="353.7" r="2.3"/>
	<circle class="st0" cx="207" cy="352.9" r="2.3"/>
	<circle class="st4" cx="178.7" cy="392.7" r="2.3"/>
	<circle class="st4" cx="208" cy="390.4" r="2.3"/>
	<circle class="st0" cx="178.7" cy="391.9" r="2.3"/>
	<circle class="st0" cx="176.3" cy="352.9" r="2.3"/>
	<circle class="st0" cx="208" cy="389.6" r="2.3"/>
	<circle class="st0" cx="206.8" cy="209.2" r="2.3"/>
	<circle class="st0" cx="208" cy="240.4" r="2.3"/>
	<path class="st4" d="M211.5,322.2c0,0,0.4,53.2,1.6,62.7C213,384.9,213.5,324.7,211.5,322.2z"/>
	<path class="st4" d="M221.4,346.9c-0.8,0,15.9,62.3,16.7,66.8S226.1,346.9,221.4,346.9z"/>
	<path class="st4" d="M234.6,336.8c0,0.6,9.3,33.8,14,35.5S234.6,336.8,234.6,336.8z"/>
	<path class="st4" d="M271.3,272.1c0,0-19.8,0.9-20.4,3.7S271.3,272.1,271.3,272.1z"/>
	<path class="st4" d="M236.3,525.4c0,0-14.2,6-12,6.4S236.3,525.4,236.3,525.4z"/>
	<path class="st4" d="M207,516.4c-0.6-1.2,9.5,5,9.5,5.8S207.8,518.2,207,516.4z"/>
	<path class="st4" d="M220.2,536.8c0,0,11.1-0.6,11.8,3.7S220.2,536.8,220.2,536.8z"/>
	<path class="st4" d="M140.6,536.8c0,0,12-2.4,13,0S140.6,536.8,140.6,536.8z"/>
	<path class="st4" d="M145.1,610c0,0,0.8,9.9-2.1,12.2S145.1,610,145.1,610z"/>
	<path class="st4" d="M143.6,631c3.8,0.4,23.8-3.1,23.6,0S143.6,631,143.6,631z"/>
	<path class="st4" d="M235.4,619c0,0-6.8-1-5.2,3.6L235.4,619z"/>
	<path class="st4" d="M108.5,231.3h-3.7l-5.6,20.6c0,0-1.9,7.2-3.9,8.9s1.7,17.7,1.7,17.7s-2.1,11.3-3.9,14.2s2.7,10.1,2.7,10.1
		l8.9,21l23.7,6.2c0,0,41.8,9.1,43.7,10.5s3.7-0.6,5-13.2s5-37.1,8-38.3c0,0-23.3,2.5-25.2,2.1s-11.3,0.2-11.3,0.2
		s-12.2-0.8-14.2,0.4s2.5-5.6,2.5-5.6c0.8-3.1,0.8-6.4,0-9.5C135.7,271.3,135,211.9,108.5,231.3z"/>
	<path class="st4" d="M184.5,291.3c-2.9,1.2-6.6,25.6-8,38.3s-3.1,14.6-5,13.2c-1.6-1.1-29.4-7.3-39.8-9.6
		c1.6-9.7,2.5-20.5,2.5-20.5l-29.5-79h3.1c26.4-19.4,27.2,40,28.6,45.3c0.8,3.1,0.8,6.4,0,9.5c0,0-4.5,6.8-2.5,5.6
		s14.2-0.4,14.2-0.4s9.3-0.6,11.3-0.2S184.5,291.3,184.5,291.3z"/>
	<path class="st7" d="M107.8,232.1h-3.7l-5.6,20.6c0,0-1.9,7.2-3.9,8.9s1.7,17.7,1.7,17.7s-2.1,11.3-3.9,14.2s2.7,10.1,2.7,10.1
		l8.9,21l23.7,6.2c0,0,41.8,9.1,43.7,10.5s3.7-0.6,5-13.2s5-37.1,8-38.3c0,0-23.3,2.5-25.2,2.1s-11.3,0.2-11.3,0.2
		s-12.2-0.8-14.2,0.4s2.5-5.6,2.5-5.6c0.8-3.1,0.8-6.4,0-9.5C135,272.1,134.2,212.7,107.8,232.1z"/>
	<path class="st4" d="M120.4,302.4c0,0-10.7,20.2-12.6,17.9S120.4,302.4,120.4,302.4z"/>
	<path class="st4" d="M109.3,290.9c0,0-9.9,8.2-5.2,10.3S109.3,290.9,109.3,290.9z"/>
	<path class="st4" d="M118.6,280.8c0.8,0.2,14.4,2.9,14.6,4.1S118.6,280.8,118.6,280.8z"/>
	<path class="st4" d="M212.9,138.5c-0.9,0.3-1.4,1.2-1.3,2.1c-0.8,0.7-1.9-0.1-2.5-1c-0.7-0.9-1.4-2-2.4-1.9
		c-0.5,0.1-0.9,0.3-1.4,0.6c-1.6,0.5-2.9-1.3-3.7-2.9c-1.5-2.8-3-5.6-4.5-8.4c-3,1.8-6.6-0.1-9.6-1.9s-6.6-3.7-9.6-1.9
		c-4.5,2.6-4.6,11.2-9.3,13.3c-1.5,0.7-3.2,0.5-4.6,1.5c-1.4,0.9-2.1,2.7-2.7,4.4c-0.2,1-0.8,1.9-1.5,2.5c-0.5,0.3-1,0.4-1.6,0.4
		c-1.4,0.2-2.8,0-4-0.6c-1.4-0.9-1.9-2.5-1.4-4c0-0.1,0.1-0.2,0.1-0.2c0.5-0.6,0.9-1.2,1.3-1.9c0.5-1.2-0.2-2.7-0.1-4
		c0.2-2.3,2.7-3.5,3.1-5.7c0.2-0.9,0-1.8,0.2-2.7c0-0.1,0.1-0.2,0.1-0.3l-1.4,1c1.6-1.9,2.4-4.4,3.6-6.7c2.6-5,7.2-8.7,12.6-10.2
		c5.1-1.5,10.4-1.1,15.5,0.2c4.9,1.2,9.5,3.1,13.8,5.7c1.5,0.8,2.9,1.9,4,3.3c0.9,1.4,1.7,2.9,2.4,4.4c1.5,3.1,5.6,6,2.3,6.4
		c-2.7,0.4-0.2,2.3,1.2,3.6c0.3,0.3,0.6,0.6,0.8,0.9c0.5,1,0.4,2.2-0.2,3.1C211.5,138.1,213.7,138.2,212.9,138.5z"/>
	<path class="st10" d="M212.9,137.8c-0.9,0.3-1.4,1.2-1.3,2.1c-0.8,0.7-1.9-0.1-2.5-1c-0.7-0.9-1.4-2-2.4-1.9
		c-0.5,0.1-0.9,0.3-1.4,0.6c-1.6,0.5-2.9-1.3-3.7-2.9c-1.5-2.8-3-5.6-4.5-8.4c-3,1.8-6.6-0.1-9.6-1.9s-6.6-3.7-9.6-1.9
		c-4.5,2.6-4.6,11.2-9.3,13.3c-1.5,0.7-3.2,0.5-4.6,1.5c-1.4,0.9-2.1,2.7-2.7,4.4c-0.2,1-0.8,1.9-1.5,2.5c-0.5,0.3-1,0.4-1.6,0.4
		c-1.4,0.2-2.8,0-4-0.6c-1.4-0.9-1.9-2.5-1.4-4c0-0.1,0.1-0.2,0.1-0.2c0.5-0.6,0.9-1.2,1.3-1.9c0.5-1.2-0.2-2.7-0.1-4
		c0.2-2.3,2.7-3.5,3.1-5.7c0.2-0.9,0-1.8,0.2-2.7c0-0.1,0.1-0.2,0.1-0.3l-1.4,1c1.6-1.9,2.4-4.4,3.6-6.7c2.6-5,7.2-8.7,12.6-10.2
		c5.1-1.5,10.4-1.1,15.5,0.2c4.9,1.2,9.5,3.1,13.8,5.7c1.5,0.8,2.9,1.9,4,3.3c0.9,1.4,1.7,2.9,2.4,4.4c1.5,3.1,5.6,6,2.3,6.4
		c-2.7,0.4-0.2,2.3,1.2,3.6c0.3,0.3,0.6,0.6,0.8,0.9c0.5,1,0.4,2.2-0.2,3.1C211.5,137.3,213.7,137.4,212.9,137.8z"/>
	<path class="st4" d="M211.4,132.6l-0.3,3.3c0,0-32.6-41.3-58,5.3c0,0-0.1-0.6-0.3-1.5c0.5-0.6,0.9-1.2,1.3-1.9
		c0.5-1.2-0.2-2.7-0.1-4c0.2-2.3,2.7-3.5,3.1-5.7c0.2-0.9,0-1.8,0.2-2.7c0-0.1,0.1-0.2,0.1-0.3l-1.4,1c1.6-1.9,2.4-4.4,3.6-6.7
		c2.6-5,7.2-8.7,12.6-10.2c5.1-1.5,10.4-1.1,15.5,0.2c4.9,1.2,9.5,3.1,13.8,5.7c1.5,0.8,2.9,1.9,4,3.3c0.9,1.4,1.7,2.9,2.4,4.4
		c1.5,3.1,5.6,6,2.3,6.4C207.4,129.4,209.9,131.3,211.4,132.6z"/>
	<g class="st11">
		<path d="M212.2,137.3c-0.3,0.4-0.5,0.9-0.4,1.3c-0.8,0.7-1.9-0.1-2.5-1c-0.7-0.9-1.4-2-2.4-1.9c-0.5,0.1-0.9,0.3-1.4,0.6
			c-1.6,0.5-2.9-1.3-3.7-2.9c-1.5-2.8-3-5.6-4.5-8.4c-3,1.8-6.6-0.1-9.6-1.9s-6.6-3.7-9.6-1.9c-4.5,2.6-4.6,11.2-9.3,13.3
			c-1.5,0.7-3.2,0.5-4.6,1.5c-1.4,0.9-2.1,2.7-2.7,4.4c-0.2,1-0.8,1.9-1.5,2.5c-0.5,0.3-1,0.4-1.6,0.4c-1.4,0.2-2.8,0-4-0.6
			c-0.8-0.5-1.3-1.3-1.5-2.1c-0.3,1.4,0.3,2.9,1.5,3.7c1.3,0.6,2.7,0.8,4,0.6c0.5,0,1.1-0.1,1.6-0.4c0.8-0.7,1.3-1.5,1.5-2.5
			c0.6-1.7,1.4-3.5,2.7-4.4c1.4-0.9,3.1-0.8,4.6-1.5c4.6-2.1,4.8-10.7,9.3-13.3c3-1.8,6.6,0.1,9.6,1.9s6.6,3.7,9.6,1.9
			c1.5,2.8,3,5.6,4.5,8.4c0.9,1.6,2.2,3.4,3.7,2.9c0.4-0.2,0.9-0.4,1.4-0.6c1-0.1,1.7,1,2.4,1.9c0.6,0.9,1.8,1.7,2.5,1
			c-0.1-0.9,0.5-1.8,1.3-2.1C213.7,137.9,212.4,137.7,212.2,137.3z"/>
		<path d="M209.6,129.6c0.2-0.1,0.5-0.2,0.7-0.2c1.4-0.2,1.5-0.9,0.9-1.8c-0.3,0.1-0.6,0.2-0.9,0.3
			C208.8,128.1,208.9,128.8,209.6,129.6z"/>
		<path d="M212.6,136.1c0.1-0.5,0.1-1,0-1.5c-0.1,0.3-0.2,0.6-0.4,0.9C211.9,135.7,212.2,135.9,212.6,136.1z"/>
		<path d="M154.3,133.9c0,0.1,0,0.2,0,0.3c0,0.7,0,1.4,0.2,2.1C154.5,135.4,154.4,134.6,154.3,133.9z"/>
		<path d="M157.4,124.4c-0.4,0.7-0.8,1.3-1.3,1.9l1.3-0.9C157.4,125.1,157.4,124.7,157.4,124.4z"/>
	</g>
	<path class="st7" d="M153.1,140.4c0,0-4.7-21-3.2-24.3c0,0-4-8.3-4-10.3c-0.2-3.3-1.2-6.5-3-9.3c-2.1-3.4-4.5-19,8.3-22.7
		s22.6-7.1,24.1-9.7s23.4-1,29.4,8.9s9.8,7.9,9.8,7.9s9.2,5.7,9.2,10.9s-2.8,7.7,0,8.9s0.6,22.5-11.5,23.1l-1.1,11.3
		C211,135.1,178.4,93.7,153.1,140.4z"/>
	<path class="st4" d="M154.5,77.9c0,0-2.8,16.5,2.3,22L154.5,77.9z"/>
	<path class="st4" d="M167.7,74.1c0,0-7.2,17.7-5.4,21.1L167.7,74.1z"/>
	<path class="st4" d="M173.9,68.4c0,0-4.9,23-2.5,24.9L173.9,68.4z"/>
	<path class="st4" d="M182.3,74.7c0,0-6,14.8-3.6,16.8L182.3,74.7z"/>
	<path class="st4" d="M193.6,76.4c0,0-7.1,12-5.6,14.2L193.6,76.4z"/>
	<path class="st4" d="M208.2,88.2c0,0-7.6,2-6,4.5L208.2,88.2z"/>
	<path class="st4" d="M215.4,100.7c0,0-6.8,3.3-5.5,5L215.4,100.7z"/>
	<path class="st4" d="M149.9,116.1c0,0,43.4-17.6,62.2,7.7C212.1,123.8,189.3,104.4,149.9,116.1z"/>
	<polygon class="st9" points="134.2,261 140.2,254.9 157.4,271.8 151.3,277.9 135.6,262.4 	"/>
	<path class="st8" d="M94.5,221.8c0,0,26.5,2.3,51.1,30l-10.3,10.4L94.5,221.8z"/>
	<path class="st6" d="M173.9,271.4c0,0-25.5-9.3-28-11.5s-17.2,10.7,0.7,28.2c0,0,21.9,6.3,27.8,0S173.9,271.4,173.9,271.4z"/>
	<rect x="804.6" y="439.7" class="st12" width="5.2" height="116.4"/>
	<path class="st13" d="M842.3,555.8l-0.3,5.2l-0.5,7.4l-0.2,3.1l-0.5,7.4l-0.2,3.1l-0.5,7.4l-5.2,84.2c-0.5,7.5-6.7,13.4-14.2,13.4
		h-27.1c-7.5,0-13.8-5.9-14.2-13.4l-5.2-84.2l-0.5-7.4l-0.2-3.1l-0.5-7.4l-0.2-3.1l-0.5-7.4l-0.3-5.2c-0.3-4.1,2.8-7.6,6.9-7.8
		c0.2,0,0.3,0,0.5,0H835c4.1,0,7.4,3.3,7.4,7.4C842.3,555.5,842.3,555.7,842.3,555.8z"/>
	<polygon class="st14" points="842,561.1 841.5,568.5 772.9,568.5 772.5,561.1 	"/>
	<polygon class="st14" points="841.4,571.6 840.9,579 773.6,579 773.1,571.6 	"/>
	<polygon class="st14" points="840.7,582 840.2,589.4 774.2,589.4 773.8,582 	"/>
	<path class="st7" d="M764.6,483.4c30.1,21.8,42.7,55.9,42.7,55.9s-36.3-1.2-66.4-23s-42.7-55.9-42.7-55.9S734.5,461.6,764.6,483.4z
		"/>
	<path class="st15" d="M698.2,460.3c0,0,37.7,20.9,49.8,38.2s59.3,40.7,59.3,40.7"/>
	<path class="st7" d="M784,439.5c16.4,11.9,23.2,30.4,23.2,30.4s-19.8-0.7-36.1-12.5s-23.2-30.4-23.2-30.4S767.6,427.6,784,439.5z"
		/>
	<path class="st15" d="M747.9,426.9c0,0,20.5,11.4,27.1,20.8s32.3,22.1,32.3,22.1"/>
	<path class="st7" d="M831.1,468.9c-18.8,20.7-22.8,47.7-22.8,47.7s26.5-6.5,45.4-27.2s22.8-47.7,22.8-47.7S849.9,448.2,831.1,468.9
		z"/>
	<path class="st15" d="M876.4,441.7c0,0-24.5,21.2-30.8,35.8s-37.4,39.1-37.4,39.1"/>
	<rect x="-185" class="st16" width="185" height="692.7"/>
</g>
</svg>
